HIERARCHY
ROOT root
{
	OFFSET 0.000000 0.000000 0.000000
	CHANNELS 6 Xposition Yposition Zposition Zrotation Yrotation Xrotation
	JOINT lhip
	{
		OFFSET 0.058581 -0.082280 -0.017664
		CHANNELS 3 Zrotation Yrotation Xrotation
		JOINT lknee
		{
			OFFSET 0.043451 -0.386469 0.008037
			CHANNELS 3 Zrotation Yrotation Xrotation
			JOINT lankle
			{
				OFFSET -0.014790 -0.426874 -0.037428
				CHANNELS 3 Zrotation Yrotation Xrotation
				JOINT ltoe
				{
					OFFSET 0.041054 -0.060286 0.122042
					CHANNELS 3 Zrotation Yrotation Xrotation
					End Site
					{
						OFFSET 0.000000 0.000000 0.000000
					}
				}
			}
		}
	}
	JOINT rhip
	{
		OFFSET -0.060310 -0.090513 -0.013543
		CHANNELS 3 Zrotation Yrotation Xrotation
		JOINT rknee
		{
			OFFSET -0.043257 -0.383688 -0.004843
			CHANNELS 3 Zrotation Yrotation Xrotation
			JOINT rankle
			{
				OFFSET 0.019056 -0.420046 -0.034562
				CHANNELS 3 Zrotation Yrotation Xrotation
				JOINT rtoe
				{
					OFFSET -0.034840 -0.062106 0.130323
					CHANNELS 3 Zrotation Yrotation Xrotation
					End Site
					{
						OFFSET 0.000000 0.000000 0.000000
					}
				}
			}
		}
	}
	JOINT lowerback
	{
		OFFSET 0.004439 0.124404 -0.038385
		CHANNELS 3 Zrotation Yrotation Xrotation
		JOINT upperback
		{
			OFFSET 0.004488 0.137956 0.026820
			CHANNELS 3 Zrotation Yrotation Xrotation
			JOINT chest
			{
				OFFSET -0.002265 0.056032 0.002855
				CHANNELS 3 Zrotation Yrotation Xrotation
				JOINT lowerneck
				{
					OFFSET -0.013390 0.211636 -0.033468
					CHANNELS 3 Zrotation Yrotation Xrotation
					JOINT upperneck
					{
						OFFSET 0.010113 0.088937 0.050410
						CHANNELS 3 Zrotation Yrotation Xrotation
						End Site
						{
							OFFSET 0.000000 0.000000 0.000000
						}
					}
				}
				JOINT lclavicle
				{
					OFFSET 0.071702 0.114000 -0.018898
					CHANNELS 3 Zrotation Yrotation Xrotation
					JOINT lshoulder
					{
						OFFSET 0.122921 0.045205 -0.019046
						CHANNELS 3 Zrotation Yrotation Xrotation
						JOINT lelbow
						{
							OFFSET 0.255332 -0.015649 -0.022946
							CHANNELS 3 Zrotation Yrotation Xrotation
							JOINT lwrist
							{
								OFFSET 0.265709 0.012698 -0.007375
								CHANNELS 3 Zrotation Yrotation Xrotation
								End Site
								{
									OFFSET 0.000000 0.000000 0.000000
								}
							}
						}
					}
				}
				JOINT rclavicle
				{
					OFFSET -0.082954 0.112472 -0.023707
					CHANNELS 3 Zrotation Yrotation Xrotation
					JOINT rshoulder
					{
						OFFSET -0.113228 0.046853 -0.008472
						CHANNELS 3 Zrotation Yrotation Xrotation
						JOINT relbow
						{
							OFFSET -0.260127 -0.014369 -0.031269
							CHANNELS 3 Zrotation Yrotation Xrotation
							JOINT rwrist
							{
								OFFSET -0.269108 0.006794 -0.006027
								CHANNELS 3 Zrotation Yrotation Xrotation
								End Site
								{
									OFFSET 0.000000 0.000000 0.000000
								}
							}
						}
					}
				}
			}
		}
	}
}
MOTION
Frames: 13
Frame Time: 0.033333
-0.432776 0.180990 0.975609 -95.243922 3.119076 78.708392 3.697273 -5.250027 -4.394113 -3.140185 -16.668242 8.899335 -0.383657 5.009084 -5.814078 0.000000 -0.000000 0.000000 5.219865 -0.258420 14.777624 2.252436 4.462627 17.378428 0.381472 -5.542024 -18.604204 0.000000 -0.000000 0.000000 -2.761570 3.518942 6.490079 3.026802 -5.174491 7.812788 -0.603839 -1.776827 7.186149 6.911498 6.192306 13.127661 6.046074 -2.732890 9.162155 -24.306196 5.583843 1.027943 -63.178392 -4.422296 10.106017 10.541978 -16.704257 3.623806 -1.394377 1.487588 -13.095229 22.847587 -6.438113 -3.611005 61.895576 -0.658727 12.585787 -20.601993 35.360328 -5.109731 4.311711 1.435919 -15.902871 
-0.453972 0.176778 0.976251 -95.335159 2.820811 79.119148 2.842013 -5.612232 -4.072355 -3.561564 -16.585749 10.325158 0.599542 5.819317 -7.318297 0.000000 -0.000000 0.000000 4.826408 -0.054400 14.366144 2.172734 4.447871 20.272398 1.144622 -6.114702 -17.869899 0.000000 -0.000000 0.000000 -3.444642 3.519883 5.970711 2.951204 -5.220407 7.261792 -0.615047 -1.772222 7.464118 7.035023 5.595174 13.042750 6.336433 -2.913125 8.697192 -24.053925 5.589518 0.825551 -63.015278 -5.181125 10.366559 10.377938 -16.693929 3.722839 -0.870021 1.535793 -13.160659 23.002183 -6.657624 -3.701094 62.173591 -1.223003 12.474179 -19.802522 32.016291 -4.855513 4.616914 0.745592 -15.031716 
-0.472976 0.173055 0.978611 -95.886777 2.556731 79.694834 2.467528 -5.446110 -3.187494 -3.972500 -16.185844 10.080616 1.179504 6.229505 -8.206838 0.000000 -0.000000 0.000000 4.421770 0.354426 12.182552 1.976553 3.902450 25.151020 1.808834 -5.809812 -17.122635 0.000000 -0.000000 0.000000 -4.041517 3.596853 5.431401 2.994980 -4.735009 7.108917 -0.747929 -1.809066 7.419265 7.252062 5.192821 12.235883 6.925435 -3.682112 8.509670 -23.792954 5.385186 0.518188 -62.894286 -5.958728 10.610451 10.675475 -17.140357 3.314921 -1.443347 1.538485 -13.022881 23.265945 -6.918380 -3.708339 62.825581 -1.927798 12.193222 -19.800571 28.679885 -4.684549 6.603385 0.077687 -13.852979 
-0.485359 0.170482 0.980668 -96.538123 2.308743 80.289549 2.190940 -5.169683 -2.281516 -4.030381 -15.956945 8.848952 1.774274 6.574600 -8.457801 0.000000 -0.000000 0.000000 3.852871 0.821438 9.383321 2.198710 3.024377 30.424449 2.884569 -5.437240 -15.359161 0.000000 -0.000000 0.000000 -4.614910 3.365922 5.154972 3.022780 -4.238417 6.859357 -0.707975 -1.806263 7.400652 7.443010 5.278734 12.005235 6.968168 -3.265128 7.721190 -23.612891 5.341940 0.106301 -62.716539 -6.549336 10.991037 10.554301 -17.672098 2.773546 -1.264356 1.403572 -12.927907 23.291858 -7.029208 -3.782145 63.146128 -2.245719 12.420419 -19.358355 26.289927 -4.556178 7.463421 -0.181162 -12.721590 
-0.500352 0.167322 0.982733 -97.306279 2.189252 80.911187 2.118466 -4.447158 -1.032587 -4.164983 -15.762759 7.142732 2.390377 6.697414 -8.747361 0.000000 -0.000000 0.000000 2.991602 0.865305 5.269956 2.250344 1.106895 37.635301 3.869877 -5.147887 -12.025313 0.000000 -0.000000 0.000000 -5.022130 2.593444 5.249582 2.882258 -3.869015 6.444071 -0.699284 -1.760477 7.136447 7.001418 5.037982 11.287809 7.412640 -2.825343 6.513406 -23.496154 5.228175 0.193605 -62.045865 -7.105887 11.239333 10.448273 -19.454652 2.324809 -0.717991 0.932456 -13.566551 23.316107 -6.796462 -3.515613 63.329499 -2.728612 12.472462 -18.541489 24.575076 -4.159211 7.653777 -0.136059 -11.127866 
-0.513258 0.164789 0.983620 -97.959248 2.098146 81.489453 2.191848 -3.725395 0.019055 -4.412944 -15.701647 5.544969 2.747544 6.820825 -9.046840 0.000000 -0.000000 0.000000 2.158500 0.510637 0.990916 1.107305 -1.469002 44.015819 4.632760 -6.924641 -9.815181 0.000000 -0.000000 0.000000 -5.345874 1.676703 5.938973 2.686540 -3.635805 5.761506 -0.689644 -1.910130 6.931955 6.539922 5.002341 10.267267 7.747490 -2.415042 6.151312 -23.536796 5.183402 0.269091 -60.958954 -7.560885 11.196638 10.089841 -21.615061 1.542392 0.130434 0.401395 -14.018402 23.545914 -6.776080 -3.623716 63.048524 -3.696845 12.812018 -17.795763 24.413590 -3.847549 8.761962 -0.372522 -9.811348 
-0.524322 0.163241 0.984739 -98.468181 2.139603 81.509463 2.321222 -2.709004 1.421214 -4.450038 -15.864146 4.187843 2.588553 6.627737 -9.418282 0.000000 -0.000000 0.000000 1.737457 -0.098550 -2.056528 -1.321424 -4.743177 47.632956 3.973622 -11.049097 -11.399710 0.000000 -0.000000 0.000000 -5.536275 0.727305 7.157538 2.397992 -3.588948 5.462340 -0.632028 -2.212785 6.855383 6.221305 5.198335 8.925301 7.932749 -2.234398 5.234773 -23.548247 4.761909 0.516756 -59.641358 -8.201250 10.796626 10.114837 -24.025984 1.893865 0.070462 0.276936 -14.491551 23.882855 -6.482508 -3.684352 62.863590 -4.398518 12.935713 -17.565456 25.223432 -3.613620 9.713957 -0.246531 -9.096859 
-0.536049 0.162144 0.986784 -99.413075 2.527691 81.644409 2.825613 -1.499495 3.173868 -4.076784 -15.953366 2.223986 1.979929 6.287255 -9.443044 0.000000 -0.000000 0.000000 1.954538 -0.222136 -4.841724 -2.694868 -7.146937 48.178452 3.626215 -12.880835 -13.189376 0.000000 -0.000000 0.000000 -5.327110 -0.194599 8.016480 2.194301 -3.785154 5.724087 -0.628188 -2.568804 6.751104 5.864468 6.047965 7.698969 8.233081 -1.734289 4.131579 -23.291107 3.581875 0.596377 -58.504305 -9.275200 10.458517 9.980231 -24.620834 1.608787 1.855805 -0.589956 -14.142098 23.850227 -6.134175 -3.781113 63.284527 -4.645493 12.944651 -17.598751 25.997986 -3.609817 8.955665 0.590878 -9.168641 
-0.543772 0.161495 0.988415 -100.222358 2.922010 82.053211 3.329481 -0.580600 3.883161 -3.929396 -15.926762 1.175510 1.610918 6.071588 -9.487341 0.000000 -0.000000 0.000000 2.470223 -0.066670 -6.798330 -2.189536 -8.468847 45.981936 3.424668 -13.085893 -15.084676 0.000000 -0.000000 0.000000 -5.176221 -0.841553 8.501499 2.297444 -4.027072 5.626107 -0.575878 -2.985695 6.877347 5.683146 5.879450 7.581738 7.826857 -2.566242 4.063229 -22.846541 3.159898 0.362697 -58.084612 -10.235060 10.371105 10.225067 -25.305018 1.196490 1.961056 -0.225782 -13.134273 23.698759 -6.109186 -3.742150 63.320980 -4.880581 13.036751 -17.722802 27.740310 -3.775289 8.888142 0.451988 -9.485995 
-0.550752 0.161333 0.989836 -100.930531 3.363294 82.157277 3.789286 0.021047 4.793929 -3.695158 -15.722644 0.262761 1.211988 6.013816 -9.692685 0.000000 -0.000000 0.000000 3.225719 0.244117 -7.565485 -1.489565 -10.124378 41.688704 3.063752 -13.410843 -17.179625 0.000000 -0.000000 0.000000 -5.180337 -1.745837 9.265200 2.296846 -4.540400 5.653454 -0.240620 -2.920879 6.617826 5.535476 5.946700 7.357276 8.097694 -2.845583 3.234399 -22.195426 2.696051 0.468660 -58.085804 -10.954405 10.044476 10.479153 -25.449670 1.117726 2.538730 -0.623634 -13.098749 23.039633 -5.965991 -3.430554 63.831851 -4.869350 12.759780 -17.622131 29.302517 -3.289602 8.385114 0.879772 -10.255243 
-0.557534 0.161718 0.990418 -101.754456 3.662401 82.581525 4.054224 0.369354 5.059749 -3.538542 -15.206552 0.005137 1.092759 5.937227 -10.083382 0.000000 -0.000000 0.000000 3.869329 -0.554567 -7.702697 -1.442663 -12.130924 35.652273 2.640757 -13.931879 -18.497892 0.000000 -0.000000 0.000000 -5.076451 -1.833749 9.733049 2.274734 -5.010454 5.053186 0.129207 -3.303254 6.346111 4.885907 5.812697 8.616411 8.414528 -2.866647 3.552255 -21.496821 2.135612 1.203714 -58.180695 -11.711952 9.555423 10.699292 -25.808373 0.350625 2.308459 -0.389946 -14.076820 22.417016 -5.830135 -2.685496 64.112459 -5.088394 12.468090 -17.709984 30.901417 -2.561448 8.054714 1.000064 -10.655076 
-0.564463 0.162377 0.990845 -102.557416 3.866134 82.797452 4.364266 0.944175 5.271568 -3.669189 -14.832373 0.245734 1.003356 5.744660 -10.622203 0.000000 -0.000000 0.000000 4.448082 -1.651459 -6.572642 -0.798327 -13.662348 29.058049 2.394178 -14.324971 -18.036109 0.000000 -0.000000 0.000000 -5.020702 -1.946885 10.183178 2.295773 -5.491417 4.640942 0.445707 -3.488052 6.328074 4.744055 5.221416 9.108735 8.558067 -3.303287 3.531379 -21.057867 1.783204 1.305378 -58.060617 -12.311160 9.303501 10.213010 -25.745539 0.789670 2.876481 -0.642543 -14.097865 21.796099 -5.907976 -2.258783 64.223966 -5.069867 12.291038 -17.287307 32.324964 -1.824826 7.270195 1.097193 -10.898800 
-0.570603 0.163675 0.990339 -104.026719 3.603071 83.332242 4.277008 1.334844 5.215656 -3.911691 -13.698760 0.411502 1.253340 5.636144 -11.149909 0.000000 -0.000000 0.000000 4.558018 -2.415771 -5.367759 0.541517 -13.961681 22.406976 2.556488 -14.142645 -16.576669 0.000000 -0.000000 0.000000 -5.016304 -1.356916 9.621667 2.229157 -5.735627 4.504442 0.460108 -3.806760 6.220844 4.479554 4.222773 9.742117 8.778190 -3.788878 3.159130 -20.751917 1.145609 1.722031 -57.510719 -12.859852 9.234994 9.716448 -25.407150 1.242031 2.055297 -0.546761 -13.923184 21.481204 -5.861824 -2.140692 64.457157 -5.062463 12.205877 -17.495874 32.745372 -1.724616 7.524795 1.063993 -10.625892 
